<?xml version="1.0" encoding="UTF-8"?><svg id="Layer_1" xmlns="http://www.w3.org/2000/svg" viewBox="0 0 590.62 266.46"><path d="M147.93,201.17l8.83,11.56,16.66,22.46-3.92-31.39,14.7,6.47-.39-15.3,26.66,14.52-14.9-26.43,15.68-.83-5.88-13.73,30.38,3.14-23.91-19.03,14.11-6.28-10.83-10.2,30.43-8.63-30.43-9.02,10.83-10.79-14.11-5.69,23.72-19.81-30.58,4.33,6.47-14.53-15.68-.2,14.7-27.07-27.05,15.11-.39-15.3-13.53,6.28,2.94-31-19.21,24.33-5.49-14.55-10.29,11.15-9.31-30.08-8.33,30.08-10.29-10.95-6.37,14.22-19.6-24.52,3.43,30.9-13.87-5.88v14.71l-27.78-14.1,15.68,26.36h-15.68l6.37,14.22-31.36-3.43,24.5,19.62-13.72,5.89,10.29,10.79-30.38,8.83,30.38,8.34-10.29,10.54,13.72,5.31-24.5,20.44,30.87-3.92-5.88,13.73,15.68,.98-15.68,27.46,27.78-15.2v15.2l13.87-6.38-2.94,31.39s19.41-26.8,25.08-35.77" style="fill:none; stroke:#00bede; stroke-width:6px;"/><g><path d="M382.52,66.92l-25.25,77.11h-16.63l-14.16-50.24-15.84,50.24h-16.83l-22.37-77.11h17.33l13.96,50.01,15.34-50.01h17.72l13.66,49.78,15.64-49.78h17.43Z" style="fill:#00bede;"/><path d="M453.41,104.45c0,25.52-14.06,40.94-32.87,40.94s-32.08-15.42-32.08-40.94v-37.54h16.24v37.54c0,14.86,5.54,23.7,15.84,23.7s16.43-8.84,16.43-23.7v-37.54h16.43v37.54h.01Z" style="fill:#00bede;"/><path d="M514.09,91.3h-16.14c0-3.86-3.96-9.07-10.89-9.07-4.85,0-10.79,2.49-10.79,6.92,0,3.74,4.46,5.22,13.96,8.05,10.59,3.18,25.54,7.26,25.54,24.27,0,14.74-11.29,23.93-27.03,23.93-21.09,0-29.9-16.33-29.9-28.35h16.14s1.29,12.25,14.65,12.25c7.23,0,9.9-3.52,9.9-6.8,0-4.88-5.64-6.58-11.88-8.28-10.1-2.72-27.82-7.03-27.82-24.15,0-14.06,12.08-24.5,27.42-24.5,17.54,0,26.84,13.71,26.84,25.73Z" style="fill:#00bede;"/><path d="M590.42,125.32c-6.04,11.57-17.23,20.07-31.48,20.07-21.09,0-36.43-17.69-36.43-40.49,0-21.43,15.34-39.35,36.43-39.35,14.36,0,25.64,7.71,31.68,19.28l-13.76,9.19c-3.17-7.03-9.41-11.68-17.92-11.68-11.78,0-20,9.87-20,22.57s8.22,23.02,20,23.02c8.32,0,14.45-4.88,17.72-11.68l13.76,9.07Z" style="fill:#00bede;"/></g><g><path d="M306.96,164.96c0,4.71-1.86,9.98-7.43,9.98-2.83,0-4.96-1.54-5.45-2l1.5-3.3c.63,.48,1.96,1.38,3.73,1.38,2.03,0,3.32-1.97,3.75-3.94-.58,.72-1.77,1.78-3.87,1.78-2.61,0-5.35-2-5.35-6.15s2.73-6.52,6.41-6.52c3.63,0,6.71,3,6.71,8.77Zm-9.1-2.15c0,1.49,1.11,2.48,2.49,2.48s2.44-.99,2.44-2.48-1.06-2.61-2.44-2.61c-1.38,0-2.49,1.12-2.49,2.61Z"/><path d="M326.92,165.58c0,5.3-3.05,9.37-7.84,9.37s-7.87-4.07-7.87-9.37,3-9.37,7.87-9.37c4.77-.01,7.84,4.01,7.84,9.37Zm-4.01,0c0-3.57-2.01-5.35-3.82-5.35s-3.85,1.78-3.85,5.35,2.03,5.35,3.85,5.35,3.82-1.76,3.82-5.35Z"/><path d="M334.67,172.39c0,1.38-1.09,2.56-2.42,2.56-1.26,0-2.32-1.17-2.32-2.56,0-1.46,1.06-2.66,2.32-2.66,1.33,0,2.42,1.2,2.42,2.66Z"/><path d="M351.32,160.52h-7.87v2.42c.7-.56,1.74-1.12,3.15-1.12,4.02,0,5.74,3.41,5.74,6.28,0,4.42-2.81,6.84-6.66,6.84-4.14,0-6.73-3.57-6.73-7.14h4.02c0,1.76,1.06,3.12,2.71,3.12,1.21,0,2.66-.77,2.66-2.82s-1.19-3.01-2.44-3.01c-1.48,0-2.3,.69-2.93,1.41h-3.53v-9.99h11.88v4.01h0Z"/><path d="M369.85,160.57h-8.64v4.15h7.21v4.02h-7.21v5.88h-3.97v-18.11h12.61v4.06h0Z"/><path d="M395.41,174.63h-3.99v-9.24l-3.94,9.24h-4.43l-3.94-9.24v9.24h-3.97v-18.11h4.41l5.74,13.29,5.71-13.29h4.43v18.11h-.02Z"/><path d="M440.76,170.24c-1.48,2.72-4.21,4.71-7.7,4.71-5.15,0-8.91-4.15-8.91-9.51,0-5.03,3.75-9.24,8.91-9.24,3.51,0,6.27,1.81,7.74,4.53l-3.36,2.16c-.78-1.65-2.3-2.74-4.38-2.74-2.88,0-4.89,2.32-4.89,5.3s2.01,5.41,4.89,5.41c2.03,0,3.53-1.14,4.33-2.74l3.37,2.12Z"/><path d="M461.04,165.58c0,5.17-3.82,9.37-8.49,9.37s-8.49-4.21-8.49-9.37,3.78-9.37,8.49-9.37c4.66-.01,8.49,4.23,8.49,9.37Zm-13.36,0c0,2.96,2.18,5.33,4.86,5.33s4.82-2.37,4.82-5.33-2.18-5.3-4.82-5.3-4.86,2.37-4.86,5.3Z"/><path d="M469.8,170.58h8.64v4.05h-12.61v-18.11h3.97v14.06Z"/><path d="M497.53,165.34c0,5.99-3.44,9.61-8.03,9.61s-7.84-3.62-7.84-9.61v-8.81h3.97v8.81c0,3.49,1.36,5.57,3.87,5.57s4.02-2.08,4.02-5.57v-8.81h4.02v8.81h0Z"/><path d="M522.84,174.63h-3.99v-9.24l-3.94,9.24h-4.43l-3.94-9.24v9.24h-3.97v-18.11h4.41l5.74,13.29,5.71-13.29h4.43v18.11h-.02Z"/><path d="M542.98,169.36c0,2.96-1.72,5.27-6.22,5.27h-8.11v-18.11h7.14c4.77,0,6.27,2.08,6.27,4.98,0,1.86-1.19,3.17-1.55,3.46,1.6,.88,2.47,2.45,2.47,4.4Zm-4.7-7.3c0-1.23-.73-1.81-2.25-1.81h-3.41v3.78h3.41c1.72,0,2.25-.56,2.25-1.97Zm-1.98,5.3h-3.68v3.52h3.68c1.6,0,2.4-.59,2.4-1.76,0-1.33-.83-1.76-2.4-1.76Z"/><path d="M551.91,174.63h-3.97v-18.11h3.97v18.11Z"/><path d="M570.03,171.81h-7.94l-1.09,2.82h-4.21l7.04-18.11h4.43l7.07,18.11h-4.24l-1.06-2.82Zm-1.38-3.57l-2.57-6.76-2.61,6.76h5.18Z"/></g><path d="M128.16,59.67c-37.75,0-68.45,30.39-68.45,67.75,0,29.59,19.11,55.53,47.56,64.54h0c.65,.21,1.3,.39,1.96,.58l1.72-5.75c-.62-.18-1.25-.36-1.87-.55-25.94-8.22-43.38-31.86-43.38-58.82,0-34.05,28.02-61.75,62.45-61.75s62.45,27.7,62.45,61.75c0,28.15-19.15,51.94-45.25,59.35l1.72,5.75c28.56-8.15,49.52-34.24,49.52-65.1,.02-37.35-30.69-67.75-68.43-67.75Z"/><path d="M128.16,77.86c-27.62,0-50.08,22.24-50.08,49.57,0,22.63,15.41,41.75,36.38,47.66l1.44-4.79c-18.92-5.3-32.82-22.5-32.82-42.88,0-24.57,20.22-44.57,45.08-44.57s45.08,19.99,45.08,44.57c0,20.37-13.9,37.58-32.82,42.88l1.44,4.79c20.97-5.91,36.38-25.04,36.38-47.66,0-27.33-22.47-49.57-50.08-49.57Z" style="fill:#00bede;"/><path d="M120.04,156.46l1.15-3.83c-10.96-3.14-19-13.24-19-25.2,0-14.45,11.76-26.21,26.21-26.21s26.22,11.76,26.22,26.21c0,12.12-8.27,22.34-19.46,25.33l1.15,3.83c12.84-3.48,22.31-15.23,22.31-29.16,0-16.66-13.55-30.21-30.22-30.21s-30.21,13.55-30.21,30.21c0,13.76,9.25,25.39,21.85,29.03Z"/><path d="M136.41,154.07h-.05c-1.9,2.27-4.76,3.72-7.96,3.72s-6.05-1.45-7.96-3.72h-.05l-26.7,89.05,4.79,1.43,2.21-7.37,25.3-12.79,.2,34.71,5-.03-.2-34.59,25.11,12.7,2.21,7.37,4.79-1.43-26.69-89.05Zm-12.29,5h1.51l.07,11.82h-.02l-4.51-1.99,2.95-9.83Zm-3.81,12.72l4.36,1.92-5.69,2.49,1.33-4.41Zm-2.46,8.18l7.87-3.45h0l.08,14.29h0l-9.78-4.72,1.83-6.12Zm-2.7,9.03l9.8,4.74-13.13,6.34,3.33-11.08Zm-13.26,44.21l6.1-20.36,17.1,8.64-23.2,11.72Zm24.07-14.63l-17.09-8.64,1.78-5.95,15.18-7.34h0l.13,21.93h0Zm19.03-18.5l-13.13-6.34,9.8-4.74,3.33,11.08Zm-8.49-28.29l1.33,4.41-5.69-2.49,4.36-1.92Zm-5.87-12.72h2.06l2.95,9.83-4.94,2.16-.07-11.99Zm.1,17.29l8.23,3.61,1.83,6.12-9.98,4.82-.08-14.55Zm.24,42.16l-.13-21.93,15.32,7.4,1.78,5.95-16.97,8.58Zm.75,2.97l17.1-8.64,6.1,20.36-23.2-11.72Z"/><circle cx="127.61" cy="146.21" r="10.37" style="fill:none; stroke:#000; stroke-width:5px;"/></svg>